<?xml version="1.0" encoding="UTF-8"?>
<svg width="24px" height="24px" viewBox="0 0 24 24" version="1.1" xmlns="http://www.w3.org/2000/svg" xmlns:xlink="http://www.w3.org/1999/xlink">
    <!-- Generator: Sketch 50.2 (55047) - http://www.bohemiancoding.com/sketch -->
    <title>LearningProfile</title>
    <desc>Created with Sketch.</desc>
    <defs></defs>
    <g id="SVG" stroke="none" stroke-width="1" fill="none" fill-rule="evenodd">
        <g id="Learning-Profile" transform="translate(-7.000000, -10.000000)" fill="#D8D8D8" fill-rule="nonzero">
            <g id="LearningProfile" transform="translate(7.000000, 10.000000)">
                <path d="M18.3050847,0 L1.69491525,0 C0.760338983,0 0,0.623055556 0,1.38888889 L0,6.11111111 C0,6.36680556 0.205755734,13.5509073 0.517733135,13.5509073 C0.829710536,13.5509073 1.1299435,6.36680556 1.1299435,6.11111111 L1.1299435,1.38888889 C1.1299435,1.13361111 1.38338983,0.925925926 1.69491525,0.925925926 L18.3050847,0.925925926 C18.6166102,0.925925926 18.8700565,1.13361111 18.8700565,1.38888889 L18.8700565,18.6111111 C18.8700565,18.8663889 18.6166102,19.0740741 18.3050847,19.0740741 L1.69491525,19.0740741 C1.38338983,19.0740741 1.1299435,18.8663889 1.1299435,18.6111111 L1.1299435,10.0154167 C1.1299435,9.75972222 0.867532957,4.9250252 0.555555556,4.9250252 C0.243578154,4.9250252 0,9.75972222 0,10.0154167 L0,18.6111111 C0,19.3769444 0.760338983,20 1.69491525,20 L18.3050847,20 C19.239661,20 20,19.3769444 20,18.6111111 L20,1.38888889 C20,0.623055556 19.239661,0 18.3050847,0 Z" id="Shape"></path>
                <path d="M0.0155675345,9.0194113 C-0.0917569422,9.12677083 0.391007364,9.21416791 0.391007364,9.36458608 C0.391007364,9.51615248 -0.0916992719,9.72442472 0.0155675345,9.83178426 C0.122834341,9.93856968 0.271623782,10 0.42329674,10 C0.574912027,10 0.723701468,9.93856968 0.830968274,9.83178426 C0.938292751,9.72499884 1,9.57687712 1,9.42531072 C1,9.27431843 0.122834341,8.91262588 0.0155675345,9.0194113 Z" id="Shape"></path>
                <path d="M20.4585987,2 C20.1596369,2 19.9171975,2.20726852 19.9171975,2.46296296 L19.9171975,20.6111111 C19.9171975,20.8663889 19.6743248,21.0740741 19.3757962,21.0740741 L4.54140127,21.0740741 C4.24243949,21.0740741 4,21.2813426 4,21.537037 C4,21.7927315 4.24243949,22 4.54140127,22 L19.3757962,22 C20.2713822,22 21,21.3769444 21,20.6111111 L21,2.46296296 C21,2.20726852 20.7575605,2 20.4585987,2 Z" id="Shape"></path>
                <path d="M23.4350282,4 C23.1230508,4 22.8700565,4.20726852 22.8700565,4.46296296 L22.8700565,22.6111111 C22.8700565,22.8663889 22.6166102,23.0740741 22.3050847,23.0740741 L4.56497175,23.0740741 C4.25299435,23.0740741 4,23.2813426 4,23.537037 C4,23.7927315 4.25299435,24 4.56497175,24 L22.3050847,24 C23.239661,24 24,23.3769444 24,22.6111111 L24,4.46296296 C24,4.20726852 23.7470056,4 23.4350282,4 Z" id="Shape"></path>
                <path d="M8.48275862,4 L3.51724138,4 C3.23162069,4 3,4.19297414 3,4.43103448 L3,8.56896552 C3,8.80702586 3.23162069,9 3.51724138,9 L8.48275862,9 C8.76837931,9 9,8.80702586 9,8.56896552 L9,4.43103448 C9,4.19297414 8.76837931,4 8.48275862,4 Z M7.96551724,8.13793103 L4.03448276,8.13793103 L4.03448276,4.86206897 L7.96551724,4.86206897 L7.96551724,8.13793103 Z" id="Shape"></path>
                <path d="M6.83971048,11.1637385 C6.62593639,10.9454484 6.27949758,10.9453925 6.06566876,11.1637385 L4.61078995,12.6501129 L3.93433124,11.9589541 C3.72061188,11.7406081 3.37417307,11.740664 3.16028952,11.9589541 C2.94657016,12.1773001 2.94657016,12.5313505 3.16028952,12.7496965 L4.22379646,13.8362265 C4.32646932,13.9410661 4.46564687,14 4.61078995,14 C4.75598777,14 4.89511059,13.9410661 4.99783818,13.8362265 L6.83971048,11.954481 C7.05342984,11.736135 7.05342984,11.3820845 6.83971048,11.1637385 Z" id="Shape"></path>
                <path d="M15.4878061,12 L9.51219387,12 C9.22936042,12 9,12.22385 9,12.5 C9,12.77615 9.22936042,13 9.51219387,13 L15.4878061,13 C15.7706396,13 16,12.77615 16,12.5 C16,12.22385 15.7706396,12 15.4878061,12 Z" id="Shape"></path>
                <path d="M15.4444444,4 L11.5555556,4 C11.2487778,4 11,4.22385 11,4.5 C11,4.77615 11.2487778,5 11.5555556,5 L15.4444444,5 C15.7512222,5 16,4.77615 16,4.5 C16,4.22385 15.7512222,4 15.4444444,4 Z" id="Shape"></path>
                <path d="M15.4444444,5 L11.5555556,5 C11.2487778,5 11,5.22385 11,5.5 C11,5.77615 11.2487778,6 11.5555556,6 L15.4444444,6 C15.7512222,6 16,5.77615 16,5.5 C16,5.22385 15.7512222,5 15.4444444,5 Z" id="Shape"></path>
                <path d="M15.4444444,9 L11.5555556,9 C11.2487778,9 11,9.22385 11,9.5 C11,9.77615 11.2487778,10 11.5555556,10 L15.4444444,10 C15.7512222,10 16,9.77615 16,9.5 C16,9.22385 15.7512222,9 15.4444444,9 Z" id="Shape"></path>
                <path d="M6.83971048,15.1637385 C6.62593639,14.9454484 6.27949758,14.9453925 6.06566876,15.1637385 L4.61078995,16.6501129 L3.93433124,15.9589541 C3.72061188,15.7406081 3.37417307,15.740664 3.16028952,15.9589541 C2.94657016,16.1773001 2.94657016,16.5313505 3.16028952,16.7496965 L4.22379646,17.8362265 C4.32646932,17.9410661 4.46564687,18 4.61078995,18 C4.75598777,18 4.89511059,17.9410661 4.99783818,17.8362265 L6.83971048,15.954481 C7.05342984,15.736135 7.05342984,15.3820845 6.83971048,15.1637385 Z" id="Shape"></path>
                <path d="M15.4878061,15 L9.51219387,15 C9.22936042,15 9,15.22385 9,15.5 C9,15.77615 9.22936042,16 9.51219387,16 L15.4878061,16 C15.7706396,16 16,15.77615 16,15.5 C16,15.22385 15.7706396,15 15.4878061,15 Z" id="Shape"></path>
            </g>
        </g>
    </g>
</svg>