<?xml version="1.0" encoding="UTF-8"?>
<svg width="17px" height="17px" viewBox="0 0 17 17" version="1.1" xmlns="http://www.w3.org/2000/svg" xmlns:xlink="http://www.w3.org/1999/xlink">
    <!-- Generator: Sketch 50.2 (55047) - http://www.bohemiancoding.com/sketch -->
    <title>LearningFeed</title>
    <desc>Created with Sketch.</desc>
    <defs></defs>
    <g id="SVG" stroke="none" stroke-width="1" fill="none" fill-rule="evenodd">
        <g id="LearningFeed" transform="translate(-24.000000, -37.000000)" fill="#D8D8D8" fill-rule="nonzero">
            <g transform="translate(24.000000, 37.000000)" id="Shape">
                <path d="M2.65156509,10.0973333 C2.57763486,10.0353333 2.47606975,10 2.37209301,10 C2.26807673,10 2.16607674,10.0353333 2.09258139,10.0973333 C2.01865116,10.1596667 1.97674419,10.2456667 1.97674419,10.3333333 C1.97674419,10.421 2.01865116,10.507 2.09258139,10.569 C2.16607674,10.631 2.26807673,10.6666667 2.37209301,10.6666667 C2.47606975,10.6666667 2.57806975,10.631 2.65156509,10.569 C2.72509997,10.507 2.76744183,10.421 2.76744183,10.3333333 C2.76748137,10.2453333 2.72517904,10.1596667 2.65156509,10.0973333 Z"></path>
                <path d="M16.6679935,0 L6.04272374,0 C5.85937143,0 5.71068406,0.148683594 5.71068406,0.33203125 L5.71068406,1.79296875 L2.1245891,1.79296875 C1.94123679,1.79296875 1.79254942,1.94165234 1.79254942,2.125 L1.79254942,3.91796875 L0.766081951,3.91796875 C0.343661069,3.91796875 0,4.2616543 0,4.68403125 L0,8.6635918 C-3.32039681e-05,9.08600195 0.343661069,9.4296875 0.766081951,9.4296875 L3.24449253,9.4296875 L4.01532265,10.200498 C4.08017,10.2653105 4.16513896,10.29775 4.25010791,10.29775 C4.33507687,10.29775 4.42004582,10.2653105 4.48489317,10.200498 L5.25569008,9.4296875 L6.53875782,9.4296875 C6.9611787,9.4296875 7.30483977,9.08600195 7.30483977,8.663625 L7.30483977,4.68403125 C7.30483977,4.26162109 6.9611455,3.91796875 6.53875782,3.91796875 L2.45662878,3.91796875 L2.45662878,2.45703125 L10.5003565,2.45703125 L10.5003565,5.06125195 C10.5003565,5.24459961 10.6490438,5.3932832 10.8323961,5.3932832 L13.4476071,5.3932832 L13.4476071,16.3359375 L2.45662878,16.3359375 L2.45662878,11.5436309 C2.45662878,11.3602832 2.30794141,11.2115996 2.1245891,11.2115996 C1.94123679,11.2115996 1.79254942,11.3602832 1.79254942,11.5436309 L1.79254942,16.6679687 C1.79254942,16.8513164 1.94123679,17 2.1245891,17 L13.7796467,17 C13.9629991,17 14.1116864,16.8513164 14.1116864,16.6679687 L14.1116864,13.9453125 L16.6679603,13.9453125 C16.8513126,13.9453125 17,13.7966289 17,13.6132812 L17,0.33203125 C17.0000332,0.148683594 16.8513458,0 16.6679935,0 Z M6.53879102,4.58203125 C6.59503854,4.58203125 6.64079361,4.62778516 6.64079361,4.68403125 L6.64079361,8.6635918 C6.64079361,8.71983789 6.59503854,8.7655918 6.53879102,8.7655918 L5.11819245,8.7655918 C5.03013553,8.7655918 4.94569784,8.80058789 4.88340719,8.86284375 L4.25014112,9.49609375 L3.61687504,8.86284375 C3.55458439,8.80058789 3.4701467,8.7655918 3.38208978,8.7655918 L0.766081951,8.7655918 C0.709834429,8.7655918 0.664079361,8.71983789 0.664079361,8.6635918 L0.664079361,4.68403125 C0.664079361,4.62778516 0.709834429,4.58203125 0.766081951,4.58203125 L6.53879102,4.58203125 Z M11.164469,4.7292207 L11.164469,2.91559961 L12.9784018,4.7292207 L11.164469,4.7292207 Z M14.1117196,13.28125 L14.1117196,5.06082031 C14.1117196,4.97276562 14.0767226,4.88829687 14.014432,4.82604102 L11.0781055,1.8902207 C11.0158481,1.82796484 10.9314104,1.79296875 10.8433534,1.79296875 L6.37476342,1.79296875 L6.37476342,0.6640625 L16.3359538,0.6640625 L16.3359538,13.28125 L14.1117196,13.28125 Z"></path>
                <path d="M4.86062045,6.26637896 L3.7003437,5.43984685 C3.51379369,5.30696615 3.27713074,5.29775659 3.08268893,5.415929 C2.88824711,5.5341014 2.76744186,5.76052822 2.76744186,6.00682473 L2.76744186,7.65988896 C2.76747221,7.90618548 2.88827746,8.13257856 3.08271928,8.25075096 C3.17353569,8.30594082 3.27354908,8.33333333 3.37338035,8.33333333 C3.48729545,8.33333333 3.60093737,8.2976421 3.7003437,8.22683311 L4.86062045,7.400301 C4.86062045,7.400301 4.86062045,7.400301 4.86065081,7.400301 C5.03527206,7.27585396 5.13953488,7.06389929 5.13953488,6.83335685 C5.13953488,6.60278067 5.03524171,6.39085974 4.86062045,6.26637896 Z M3.37453377,7.65746007 L3.37462483,6.00921989 L4.53147168,6.83342432 L3.37453377,7.65746007 Z"></path>
                <path d="M9.56215345,13 L7.43784655,13 C7.26027699,13 7.11627907,13.1492667 7.11627907,13.3333333 C7.11627907,13.5174 7.26024483,13.6666667 7.43784655,13.6666667 L9.56215345,13.6666667 C9.73972301,13.6666667 9.88372093,13.5174 9.88372093,13.3333333 C9.88372093,13.1492667 9.73972301,13 9.56215345,13 Z"></path>
                <path d="M12.2989746,13 L11.4219556,13 C11.2274773,13 11.0697674,13.1492667 11.0697674,13.3333333 C11.0697674,13.5174 11.2274773,13.6666667 11.4219556,13.6666667 L12.2989746,13.6666667 C12.4934529,13.6666667 12.6511628,13.5174 12.6511628,13.3333333 C12.6511628,13.1492667 12.4934529,13 12.2989746,13 Z"></path>
                <path d="M10.3642789,11.3333333 L7.42641875,11.3333333 C7.25515962,11.3333333 7.11627907,11.4826 7.11627907,11.6666667 C7.11627907,11.8507333 7.25512861,12 7.42641875,12 L10.3642789,12 C10.5355381,12 10.6744186,11.8507333 10.6744186,11.6666667 C10.6744186,11.4826 10.5355381,11.3333333 10.3642789,11.3333333 Z"></path>
                <path d="M12.5353256,11.431 C12.4617907,11.369 12.3597907,11.3333333 12.255814,11.3333333 C12.1514419,11.3333333 12.0498372,11.3689667 11.9763419,11.431 C11.9024116,11.493 11.8604651,11.579 11.8604651,11.6666667 C11.8604651,11.7543333 11.9024116,11.8403333 11.9763419,11.9023 C12.0498372,11.9643 12.1514814,12 12.255814,12 C12.3597907,12 12.4617907,11.9643333 12.5353256,11.9023 C12.6088605,11.8403333 12.6511628,11.7543333 12.6511628,11.6666667 C12.6511628,11.579 12.6088605,11.493 12.5353256,11.431 Z"></path>
                <path d="M11.9175776,14.6666667 L7.4545154,14.6666667 C7.2677413,14.6666667 7.11627907,14.8159333 7.11627907,15 C7.11627907,15.1840667 7.26770748,15.3333333 7.4545154,15.3333333 L11.9175776,15.3333333 C12.1043517,15.3333333 12.255814,15.1840667 12.255814,15 C12.255814,14.8159333 12.1043517,14.6666667 11.9175776,14.6666667 Z"></path>
                <path d="M9.93023461,8 L8.65116074,8 C8.45853396,8 8.30232558,8.14926667 8.30232558,8.33333333 C8.30232558,8.5174 8.45853396,8.66666667 8.65116074,8.66666667 L9.93023461,8.66666667 C10.1228614,8.66666667 10.2790698,8.5174 10.2790698,8.33333333 C10.2790698,8.14926667 10.1228614,8 9.93023461,8 Z"></path>
                <path d="M11.9332329,6.66666667 L8.62490659,6.66666667 C8.44677736,6.66666667 8.30232558,6.81593333 8.30232558,7 C8.30232558,7.18406667 8.44677736,7.33333333 8.62490659,7.33333333 L11.9332329,7.33333333 C12.1113622,7.33333333 12.255814,7.18406667 12.255814,7 C12.255814,6.81593333 12.1113622,6.66666667 11.9332329,6.66666667 Z"></path>
                <path d="M12.54872,8.0970504 C12.4836531,8.03544161 12.3934824,8 12.3015286,8 C12.2839071,8 12.2664254,8.00168927 12.2491534,8.00420662 L11.4194016,8.00420662 C11.2263336,8.00420662 11.0697674,8.15253143 11.0697674,8.33543664 C11.0697674,8.51834186 11.2263336,8.66666667 11.4194016,8.66666667 L12.2900606,8.66666667 C12.3402331,8.66666667 12.3878183,8.65646478 12.4309282,8.63844587 C12.4746325,8.62185124 12.5149803,8.59717461 12.54872,8.56537653 C12.6137519,8.50380086 12.6511628,8.41834352 12.6511628,8.33123002 C12.6511628,8.24411653 12.6137519,8.15865918 12.54872,8.0970504 Z"></path>
                <path d="M11.9175776,9.66666667 L7.4545154,9.66666667 C7.26770748,9.66666667 7.11627907,9.8159 7.11627907,10 C7.11627907,10.1840667 7.2677413,10.3333333 7.4545154,10.3333333 L11.9175776,10.3333333 C12.1043517,10.3333333 12.255814,10.1840667 12.255814,10 C12.255814,9.81593333 12.1043517,9.66666667 11.9175776,9.66666667 Z"></path>
                <path d="M5.61356842,13.6781609 C5.78843036,13.6781609 5.93023256,13.5237471 5.93023256,13.3333333 C5.93023256,13.1429195 5.78843036,12.9885057 5.61356842,12.9885057 L4.58681664,12.9885057 L4.58681664,12.0229885 L5.61356842,12.0229885 C5.78843036,12.0229885 5.93023256,11.8685747 5.93023256,11.6781609 C5.93023256,11.4877471 5.78843036,11.3333333 5.61356842,11.3333333 L4.27015251,11.3333333 C4.09529057,11.3333333 3.95348837,11.4877471 3.95348837,11.6781609 L3.95348837,14.9885057 C3.95348837,15.1789195 4.09529057,15.3333333 4.27015251,15.3333333 L5.61356842,15.3333333 C5.78843036,15.3333333 5.93023256,15.1789195 5.93023256,14.9885057 C5.93023256,14.798092 5.78843036,14.6436782 5.61356842,14.6436782 L4.58681664,14.6436782 L4.58681664,13.6781609 L5.61356842,13.6781609 Z"></path>
            </g>
        </g>
    </g>
</svg>