<?xml version="1.0" encoding="UTF-8"?>
<svg width="24px" height="24px" viewBox="0 0 24 24" version="1.1" xmlns="http://www.w3.org/2000/svg" xmlns:xlink="http://www.w3.org/1999/xlink">
    <!-- Generator: Sketch 50.2 (55047) - http://www.bohemiancoding.com/sketch -->
    <title>Library</title>
    <desc>Created with Sketch.</desc>
    <defs></defs>
    <g id="SVG" stroke="none" stroke-width="1" fill="none" fill-rule="evenodd">
        <g id="Library" transform="translate(-2.000000, -3.000000)" fill="#D8D8D8" fill-rule="nonzero">
            <g transform="translate(2.000000, 3.000000)" id="Shape">
                <path d="M23.53125,19.4934498 L22.9686094,19.4934498 L22.9686094,13.6943057 C22.9686094,13.4049432 22.75875,13.1702882 22.4998594,13.1702882 C22.2409687,13.1702882 22.0311094,13.4049432 22.0311094,13.6943057 L22.0311094,19.4934498 L21.796875,19.4934498 L20.71875,19.4934498 L20.71875,17.3787249 L20.71875,4.40174672 L21.4218281,4.40174672 C21.7577812,4.40174672 22.0311562,4.70730131 22.0311562,5.08286463 L22.0311562,9.6419214 C22.0311562,9.93128384 22.2410156,10.1659389 22.4999062,10.1659389 C22.7587969,10.1659389 22.9686562,9.93128384 22.9686562,9.6419214 L22.9686562,5.08286463 C22.9686562,4.12941485 22.2747656,3.35371179 21.4218281,3.35371179 L20.71875,3.35371179 L20.71875,0.524017467 C20.71875,0.234655022 20.5088906,0 20.25,0 L13.875,0 C13.1091094,0 12.4279687,0.412820961 12,1.049869 C11.5720312,0.412820961 10.8908906,0 10.125,0 L3.75,0 C3.49110937,0 3.28125,0.234655022 3.28125,0.524017467 L3.28125,3.35371179 L2.57817187,3.35371179 C1.72528125,3.35371179 1.03134375,4.12941485 1.03134375,5.08286463 L1.03134375,19.4934498 L0.46875,19.4934498 C0.209859375,19.4934498 0,19.7281048 0,20.0174672 L0,20.9606987 C0,22.636559 1.21964062,24 2.71875,24 L21.28125,24 C22.7803594,24 24,22.636559 24,20.9606987 L24,20.0174672 C24,19.7281048 23.7901406,19.4934498 23.53125,19.4934498 Z M12.46875,6.04129258 L12.46875,2.62008734 C12.46875,1.75325764 13.0995938,1.04803493 13.875,1.04803493 L19.78125,1.04803493 L19.78125,16.8547074 L13.875,16.8547074 C13.3478438,16.8547074 12.8607188,17.0503231 12.46875,17.3799301 L12.46875,6.04129258 Z M12.46875,19.4747948 C12.46875,18.6079651 13.0995938,17.9027424 13.875,17.9027424 L19.78125,17.9027424 L19.78125,19.4934498 L12.4679063,19.4934498 C12.4680938,19.487214 12.46875,19.481083 12.46875,19.4747948 Z M4.21875,1.04803493 L10.125,1.04803493 C10.9004062,1.04803493 11.53125,1.75325764 11.53125,2.62008734 L11.53125,6.04129258 L11.53125,17.3801397 C11.1392344,17.0504279 10.65225,16.8547074 10.125,16.8547074 L4.21875,16.8547074 L4.21875,1.04803493 Z M4.21875,17.9027424 L10.125,17.9027424 C10.9004062,17.9027424 11.53125,18.6079651 11.53125,19.4747948 C11.53125,19.481083 11.5319062,19.487214 11.5320937,19.4934498 L4.21875,19.4934498 L4.21875,17.9027424 Z M1.96889063,5.08286463 C1.96889063,4.70730131 2.24221875,4.40174672 2.57821875,4.40174672 L3.28125,4.40174672 L3.28125,17.3787249 L3.28125,19.4934498 L1.96889063,19.4934498 L1.96889063,5.08286463 Z M23.0625,20.9606987 C23.0625,22.0586725 22.2634219,22.9519651 21.28125,22.9519651 L2.71875,22.9519651 C1.73657812,22.9519651 0.9375,22.0586725 0.9375,20.9606987 L0.9375,20.5414847 L23.0625,20.5414847 L23.0625,20.9606987 Z"></path>
                <path d="M12.9911712,20.8888889 L11.0088288,20.8888889 C10.7609407,20.8888889 10.56,21.0879111 10.56,21.3333333 C10.56,21.5787556 10.7609407,21.7777778 11.0088288,21.7777778 L12.9911712,21.7777778 C13.2390593,21.7777778 13.44,21.5787556 13.44,21.3333333 C13.44,21.0879111 13.2390593,20.8888889 12.9911712,20.8888889 Z"></path>
                <path d="M22.89936,11.2413333 C22.81008,11.1586667 22.68624,11.1111111 22.56,11.1111111 C22.43328,11.1111111 22.30992,11.1586667 22.22064,11.2413333 C22.13136,11.324 22.08,11.4382222 22.08,11.5555556 C22.08,11.6724444 22.13136,11.7871111 22.22064,11.8697778 C22.30992,11.9524 22.43328,12 22.56,12 C22.68624,12 22.81008,11.9524444 22.89936,11.8697778 C22.98864,11.7871111 23.04,11.6724444 23.04,11.5555556 C23.04,11.4381778 22.98864,11.324 22.89936,11.2413333 Z"></path>
                <path d="M17.76,3.11111111 L14.88,3.11111111 C14.614896,3.11111111 14.4,3.31013333 14.4,3.55555556 C14.4,3.80097778 14.614896,4 14.88,4 L17.76,4 C18.025104,4 18.24,3.80097778 18.24,3.55555556 C18.24,3.31013333 18.025104,3.11111111 17.76,3.11111111 Z"></path>
                <path d="M17.76,5.77777778 L14.88,5.77777778 C14.614896,5.77777778 14.4,5.9768 14.4,6.22222222 C14.4,6.46764444 14.614896,6.66666667 14.88,6.66666667 L17.76,6.66666667 C18.025104,6.66666667 18.24,6.46764444 18.24,6.22222222 C18.24,5.9768 18.025104,5.77777778 17.76,5.77777778 Z"></path>
                <path d="M17.76,8.44444444 L14.88,8.44444444 C14.614896,8.44444444 14.4,8.64346667 14.4,8.88888889 C14.4,9.13431111 14.614896,9.33333333 14.88,9.33333333 L17.76,9.33333333 C18.025104,9.33333333 18.24,9.13431111 18.24,8.88888889 C18.24,8.64346667 18.025104,8.44444444 17.76,8.44444444 Z"></path>
                <path d="M17.76,10.6666667 L14.88,10.6666667 C14.614896,10.6666667 14.4,10.8656889 14.4,11.1111111 C14.4,11.3565333 14.614896,11.5555556 14.88,11.5555556 L17.76,11.5555556 C18.025104,11.5555556 18.24,11.3565333 18.24,11.1111111 C18.24,10.8656889 18.025104,10.6666667 17.76,10.6666667 Z"></path>
                <path d="M17.76,13.3333333 L14.88,13.3333333 C14.614896,13.3333333 14.4,13.5323556 14.4,13.7777778 C14.4,14.0232 14.614896,14.2222222 14.88,14.2222222 L17.76,14.2222222 C18.025104,14.2222222 18.24,14.0232 18.24,13.7777778 C18.24,13.5323556 18.025104,13.3333333 17.76,13.3333333 Z"></path>
                <path d="M9.6,8.44444444 L6.72,8.44444444 C6.454896,8.44444444 6.24,8.64346667 6.24,8.88888889 C6.24,9.13431111 6.454896,9.33333333 6.72,9.33333333 L9.6,9.33333333 C9.865104,9.33333333 10.08,9.13431111 10.08,8.88888889 C10.08,8.64346667 9.865104,8.44444444 9.6,8.44444444 Z"></path>
                <path d="M9.6,10.6666667 L6.72,10.6666667 C6.454896,10.6666667 6.24,10.8656889 6.24,11.1111111 C6.24,11.3565333 6.454896,11.5555556 6.72,11.5555556 L9.6,11.5555556 C9.865104,11.5555556 10.08,11.3565333 10.08,11.1111111 C10.08,10.8656889 9.865104,10.6666667 9.6,10.6666667 Z"></path>
                <path d="M9.15840751,13.3333333 L8.12159249,13.3333333 C7.87770096,13.3333333 7.68,13.5323556 7.68,13.7777778 C7.68,14.0232 7.87770096,14.2222222 8.12159249,14.2222222 L9.15840751,14.2222222 C9.40229904,14.2222222 9.6,14.0232 9.6,13.7777778 C9.6,13.5323556 9.40229904,13.3333333 9.15840751,13.3333333 Z"></path>
                <path d="M7.05936,13.4631556 C6.97008,13.3804889 6.84624,13.3333333 6.72,13.3333333 C6.59328,13.3333333 6.46992,13.3804889 6.38016,13.4631556 C6.29088,13.5462222 6.24,13.6604444 6.24,13.7777778 C6.24,13.8947111 6.29088,14.0093333 6.38016,14.092 C6.46992,14.1746667 6.59328,14.2222222 6.72,14.2222222 C6.84624,14.2222222 6.97008,14.1747111 7.05936,14.092 C7.14864,14.0092889 7.2,13.8947111 7.2,13.7777778 C7.2,13.6608889 7.14864,13.5462222 7.05936,13.4631556 Z"></path>
                <path d="M9.19555428,4.02656118 L7.59251368,2.82868501 C7.32194645,2.62651454 6.97881947,2.61260324 6.69701124,2.79226855 C6.41511086,2.97198757 6.24000001,3.31633266 6.24000001,3.69091738 L6.24000001,6.08677713 C6.23995394,6.46146927 6.41511086,6.80576065 6.69701124,6.98553338 C6.82867838,7.06948462 6.97370574,7.11111111 7.11845667,7.11111111 C7.28357041,7.11111111 7.44840772,7.05686239 7.59251368,6.94911692 L9.19555428,5.75113333 C9.44879931,5.56196106 9.59995393,5.23963773 9.6,4.88895468 C9.6,4.53827162 9.44884538,4.21589458 9.19555428,4.02656118 Z M7.16134754,5.99535998 L7.16134754,3.78244195 L8.641981,4.88890097 L7.16134754,5.99535998 Z"></path>
            </g>
        </g>
    </g>
</svg>