<?xml version="1.0" encoding="UTF-8"?>
<svg width="24px" height="24px" viewBox="0 0 24 24" version="1.1" xmlns="http://www.w3.org/2000/svg" xmlns:xlink="http://www.w3.org/1999/xlink">
    <!-- Generator: Sketch 50.2 (55047) - http://www.bohemiancoding.com/sketch -->
    <title>ShoppingCart</title>
    <desc>Created with Sketch.</desc>
    <defs></defs>
    <g id="SVG" stroke="none" stroke-width="1" fill="none" fill-rule="evenodd">
        <g id="Cart" transform="translate(-4.000000, -6.000000)" fill="#D8D8D8" fill-rule="nonzero">
            <g id="ShoppingCart" transform="translate(4.000000, 6.000000)">
                <path d="M10.0633594,19.4343291 C8.8995,19.4343291 7.952625,20.4571139 7.952625,21.7142785 C7.952625,22.971443 8.8995,23.9942278 10.0633594,23.9942278 C11.2272188,23.9942278 12.1740938,22.971443 12.1740938,21.7142785 C12.1740469,20.4571139 11.2271719,19.4343291 10.0633594,19.4343291 Z M10.0633594,22.7211139 C9.54932813,22.7211139 9.13115625,22.2693671 9.13115625,21.7141772 C9.13115625,21.1589367 9.549375,20.7072405 10.0633594,20.7072405 C10.5773438,20.7072405 10.9955625,21.1589873 10.9955625,21.7141772 C10.9955625,22.2694684 10.5773438,22.7211139 10.0633594,22.7211139 Z" id="Shape"></path>
                <path d="M17.4670313,19.4343291 C16.3031719,19.4343291 15.3562969,20.4571139 15.3562969,21.7142785 C15.3562969,22.971443 16.3031719,23.9942278 17.4670313,23.9942278 C18.6308906,23.9942278 19.5777656,22.971443 19.5777656,21.7142785 C19.5777188,20.4571139 18.6308438,19.4343291 17.4670313,19.4343291 Z M17.4670313,22.7211139 C16.953,22.7211139 16.5348281,22.2693671 16.5348281,21.7141772 C16.5348281,21.1589367 16.9530469,20.7072405 17.4670313,20.7072405 C17.9810625,20.7072405 18.3992344,21.1589873 18.3992344,21.7141772 C18.3992344,22.2694684 17.9810156,22.7211139 17.4670313,22.7211139 Z" id="Shape"></path>
                <path d="M17.9866875,7.43063291 L9.54220312,7.43063291 C9.21675,7.43063291 8.9529375,7.71559494 8.9529375,8.06713924 C8.9529375,8.41868354 9.21679687,8.70364557 9.54220312,8.70364557 L17.9866875,8.70364557 C18.3121406,8.70364557 18.5759531,8.41868354 18.5759531,8.06713924 C18.5759531,7.7155443 18.3121406,7.43063291 17.9866875,7.43063291 Z" id="Shape"></path>
                <path d="M17.5270781,10.7359494 L10.0018594,10.7359494 C9.67640625,10.7359494 9.41259375,11.0209114 9.41259375,11.3724557 C9.41259375,11.724 9.67640625,12.008962 10.0018594,12.008962 L17.5270313,12.008962 C17.8524844,12.008962 18.1162969,11.724 18.1162969,11.3724557 C18.1162969,11.020962 17.8524844,10.7359494 17.5270781,10.7359494 Z" id="Shape"></path>
                <path d="M23.7347344,4.59463291 C23.5100156,4.29670886 23.1770156,4.12587342 22.8211875,4.12587342 L4.46615625,4.12587342 L4.09546875,2.18212658 C4.01807813,1.77665823 3.76204688,1.43620253 3.4104375,1.27129114 L0.824015625,0.0586329114 C0.525421875,-0.0814683544 0.17840625,0.0665316456 0.048890625,0.388962025 C-0.080765625,0.711493671 0.05625,1.08637975 0.354703125,1.22627848 L2.94117188,2.43898734 L5.79239063,17.3889114 C5.90470313,17.9776709 6.39014063,18.4050127 6.9466875,18.4050127 L21.0638437,18.4050127 C21.3892969,18.4050127 21.6531094,18.1200506 21.6531094,17.7685063 C21.6531094,17.416962 21.3892969,17.132 21.0638437,17.132 L6.94673438,17.132 L6.59990625,15.3134684 L21.1729687,15.3134684 C21.7294687,15.3134684 22.2149531,14.8861266 22.3272188,14.2973671 L23.9754844,5.65559494 C24.04725,5.27929114 23.9595,4.89250633 23.7347344,4.59463291 Z M21.1729688,14.040557 L6.35714063,14.040557 L4.70896875,5.39883544 L22.8211406,5.39883544 L21.1729688,14.040557 Z" id="Shape"></path>
            </g>
        </g>
    </g>
</svg>