<?xml version="1.0" encoding="UTF-8"?>
<svg width="17px" height="17px" viewBox="0 0 17 17" version="1.1" xmlns="http://www.w3.org/2000/svg" xmlns:xlink="http://www.w3.org/1999/xlink">
    <!-- Generator: Sketch 50.2 (55047) - http://www.bohemiancoding.com/sketch -->
    <title>SocialFeed</title>
    <desc>Created with Sketch.</desc>
    <defs></defs>
    <g id="SVG" stroke="none" stroke-width="1" fill="none" fill-rule="evenodd">
        <g id="SocialFeed" transform="translate(-11.000000, -6.000000)" fill="#D8D8D8" fill-rule="nonzero">
            <g transform="translate(11.000000, 6.000000)" id="Shape">
                <path d="M13.24806,15.0378922 C12.7118865,15.0378922 12.2757109,15.4768513 12.2757109,16.0167112 C12.2757109,16.5566078 12.7118501,16.9951272 13.24806,16.9951272 C13.7840514,16.9951272 14.220409,16.5562047 14.220409,16.0167112 C14.220409,15.4772909 13.784015,15.0378922 13.24806,15.0378922 Z M13.24806,16.5515884 C12.9547645,16.5515884 12.7164004,16.3116466 12.7164004,16.0166746 C12.7164004,15.7212996 12.9552741,15.4813578 13.24806,15.4813578 C13.541137,15.4813578 13.7797195,15.7213362 13.7797195,16.0166746 C13.7797195,16.3116466 13.5411006,16.5515884 13.24806,16.5515884 Z M16.9723704,11.0863082 C16.9723704,9.86582543 15.9860428,8.87312069 14.773364,8.87312069 C14.7101328,8.87312069 14.6472655,8.87744397 14.5853084,8.88264655 C15.5634454,8.3140625 16.2253169,7.25229526 16.2253169,6.0357694 C16.2253169,4.22307112 14.7600407,2.74843103 12.95906,2.74843103 C12.8097366,2.74843103 12.6606317,2.75883621 12.5137109,2.77887716 C12.0975567,1.1642069 10.6361392,0.0137392241 8.96020128,0.0137392241 C7.84886724,0.0137392241 6.82242398,0.506739224 6.12065525,1.37242026 C5.70151606,1.25561853 5.26774304,1.19611853 4.82901927,1.19611853 C2.16631692,1.19611853 0,3.37644181 0,6.0565431 C0,8.73624138 2.16631692,10.916528 4.82898287,10.916528 C5.61695289,10.916528 6.39604069,10.7190129 7.0946788,10.3439504 C7.71974732,11.1456616 8.67735332,11.6186207 9.69455032,11.6186207 C11.1297216,11.6186207 12.3957666,10.6826315 12.8347088,9.32050647 C12.8760257,9.32222845 12.9173426,9.32307112 12.95906,9.32307112 C13.150137,9.32307112 13.3362634,9.30314009 13.5184946,9.27177802 C12.948758,9.67219397 12.5745396,10.3354871 12.5745396,11.0867112 C12.5745396,12.2916961 13.5369872,13.2728966 14.7290257,13.2973707 C14.2094154,13.4480625 13.8274797,13.9301444 13.8274797,14.501403 C13.8274797,15.1926509 14.3862955,15.7548599 15.0730664,15.7548599 C15.7598737,15.7548599 16.3186895,15.1926509 16.3186895,14.501403 C16.3186895,13.8565022 15.832424,13.3241897 15.2097216,13.255347 C16.2136681,13.0507241 16.9723704,12.1559159 16.9723704,11.0863082 Z M12.6940128,8.86597629 L12.5081049,8.84864655 L12.4603448,9.03011422 C12.1285717,10.2928772 10.9912099,11.1748987 9.69458672,11.1748987 C8.7549636,11.1748987 7.8738394,10.7086444 7.33795717,9.92840302 L7.22165096,9.7590625 L7.0450985,9.86344397 C6.37044968,10.2619181 5.60413919,10.4728793 4.82898287,10.4728793 C2.40930407,10.4728793 0.440653105,8.49124353 0.440653105,6.05635991 C0.440653105,3.62107328 2.40930407,1.6394375 4.82898287,1.6394375 C5.27447752,1.6394375 5.71451178,1.7066681 6.13623555,1.83900431 L6.28446681,1.88535129 L6.37773019,1.7602694 C6.99588223,0.932252155 7.93714347,0.457021552 8.95994647,0.457021552 C10.497955,0.457021552 11.8311263,1.55799138 12.1289358,3.07575431 L12.172,3.29437284 L12.3893233,3.24985776 C12.5751949,3.21120474 12.7669272,3.19171336 12.9586595,3.19171336 C14.5169079,3.19171336 15.784227,4.46766595 15.784227,6.03554957 C15.784227,7.60376293 14.5169079,8.87916595 12.9586595,8.87916595 C12.869546,8.87916595 12.7813426,8.87418319 12.6940128,8.86597629 Z M15.8780364,14.5008168 C15.8780364,14.9475797 15.5169957,15.3105517 15.0731028,15.3105517 C14.6292463,15.3105517 14.2681692,14.9471767 14.2681692,14.5008168 C14.2681692,14.0536509 14.6292463,13.6906789 15.0731028,13.6906789 C15.5169957,13.6906422 15.8780364,14.0536509 15.8780364,14.5008168 Z M14.773364,12.8553707 C13.8040364,12.8553707 13.0154475,12.0619397 13.0154475,11.0858685 C13.0154475,10.1100539 13.8042548,9.31636638 14.773364,9.31636638 C15.7429101,9.31636638 16.5317173,10.1102737 16.5317173,11.0858685 C16.5317173,12.0617198 15.7429101,12.8553707 14.773364,12.8553707 Z"></path>
            </g>
        </g>
    </g>
</svg>