<?xml version="1.0" encoding="UTF-8"?>
<svg width="24px" height="24px" viewBox="0 0 24 24" version="1.1" xmlns="http://www.w3.org/2000/svg" xmlns:xlink="http://www.w3.org/1999/xlink">
    <!-- Generator: Sketch 50.2 (55047) - http://www.bohemiancoding.com/sketch -->
    <title>wallet</title>
    <desc>Created with Sketch.</desc>
    <defs></defs>
    <g id="SVG" stroke="none" stroke-width="1" fill="none" fill-rule="evenodd">
        <g id="Wallet" transform="translate(-8.000000, -8.000000)" fill="#D8D8D8" fill-rule="nonzero">
            <g id="wallet" transform="translate(8.000000, 8.000000)">
                <path d="M23.206376,14.0575263 L22.8356214,14.0575263 L22.8356214,10.8224466 C22.8356214,10.3102901 22.5724833,9.85682109 22.1706147,9.5812897 L22.1706147,9.14080511 C22.1706147,8.50185167 21.6340318,7.98205453 20.9744447,7.98205453 L20.6976126,7.98205453 L21.7567941,6.47642879 C22.1118224,5.97177228 21.9768178,5.28135007 21.4558644,4.93738115 L14.2686342,0.192691286 C14.0162868,0.0260505783 13.7121151,-0.0354494523 13.4119113,0.0197224502 C13.1118526,0.0748006026 12.8518598,0.23975381 12.6798862,0.484253931 L6.47639939,9.30252394 L4.75013055,9.30252394 L5.16661257,5.21830316 C5.17130627,5.17227189 5.2021783,5.13238124 5.24524429,5.11667811 C5.7818272,4.92069364 6.24684314,4.55469346 6.55459562,4.08613072 C6.57883839,4.04924008 6.62456576,4.02814632 6.67188996,4.03278695 L9.37948276,4.29191207 C9.57361845,4.31014646 9.74631792,4.17317764 9.76547987,3.9852088 C9.78464181,3.79723995 9.64291115,3.62984925 9.44887224,3.61128674 L6.74127944,3.35216161 C6.42699447,3.32234909 6.12727452,3.46264604 5.95888166,3.71895866 C5.73261584,4.06349009 5.39070089,4.33255272 4.99618737,4.47664654 C4.69922558,4.58511535 4.49531536,4.84349047 4.46395945,5.1510375 L4.04065462,9.30247707 L3.59049403,9.30247707 L4.24916177,2.84291135 C4.27287226,2.61041124 4.48708928,2.43959865 4.72738783,2.46289554 L10.1988979,2.98648955 C10.3929369,3.00463018 10.5657331,2.86775512 10.584895,2.67978627 C10.604057,2.49181743 10.4623263,2.32442672 10.2682874,2.30586421 L4.79677731,1.7822702 C4.16946549,1.72231705 3.60849465,2.16786414 3.54650865,2.7756457 L3.01558723,7.98205453 L2.11144334,7.98205453 C1.4519046,7.98205453 0.915273306,8.50185167 0.915273306,9.14080511 L0.915273306,9.44127401 C0.375690296,9.68193038 0,10.2103056 0,10.8224466 L0,22.4800305 C0,23.3181559 0.703862834,24 1.56910217,24 L21.2665676,24 C22.1317585,24 22.8356214,23.3181559 22.8356214,22.4800305 L22.8356214,19.2449976 L23.206376,19.2449976 C23.6440039,19.2449976 24,18.9001381 24,18.4762473 L24,14.8263236 C24.0000484,14.4023859 23.6440039,14.0575263 23.206376,14.0575263 Z M20.9744447,8.66605487 C21.2447443,8.666008 21.4645744,8.87900811 21.4645744,9.14085199 L21.4645744,9.31508645 C21.3996367,9.30711769 21.3336828,9.30257082 21.2665676,9.30257082 L19.7686937,9.30257082 L20.2164348,8.66605487 L20.9744447,8.66605487 Z M13.2633094,0.869379123 C13.3291181,0.775863451 13.428557,0.71276967 13.5433352,0.691675909 C13.5707716,0.686660282 13.5983048,0.684129031 13.6256444,0.684129031 C13.712599,0.684129031 13.7975697,0.709347793 13.8710238,0.757816567 L21.058254,5.50250643 C21.2575189,5.63408462 21.3091981,5.8981785 21.1734193,6.09120984 L18.9143418,9.30243019 L18.3721942,9.30243019 L19.4797644,7.72803878 C19.6593835,7.47271053 19.6741904,7.14777287 19.5182819,6.87997586 C19.3110812,6.52419443 19.2270783,6.10527235 19.2817576,5.70031903 C19.3224042,5.39905325 19.1855608,5.10495935 18.9246486,4.93274052 L15.1988112,2.4731143 C14.9378507,2.30084858 14.6052264,2.2850517 14.3306686,2.43191115 C13.9617043,2.629255 13.5284798,2.70673941 13.1108848,2.65011438 C12.8011968,2.60802061 12.4871054,2.74348943 12.3101477,2.99497393 L7.87294726,9.30247707 L7.33079964,9.30247707 L13.2633094,0.869379123 Z M13.4187825,6.67677264 C11.8814234,6.67677264 10.6194446,7.83800759 10.5166185,9.30247707 L8.72725073,9.30247707 L12.8934742,3.380146 C12.8935226,3.380146 12.8935226,3.380146 12.8935226,3.380146 C12.9171847,3.34644285 12.9564279,3.32638034 12.9967358,3.32638034 C13.0021069,3.32638034 13.0074781,3.32675534 13.0128492,3.32745847 C13.5808364,3.40442726 14.1699695,3.29914596 14.6718577,3.0306927 C14.7113429,3.00950519 14.7620543,3.01255206 14.8011525,3.03833333 L18.5270382,5.49800642 C18.5660396,5.52378769 18.5874758,5.56841271 18.5816691,5.61172523 C18.5072956,6.16245988 18.6215899,6.73217891 18.9033576,7.2160229 C18.9259551,7.2548823 18.923197,7.30466357 18.8963896,7.34286672 L17.5178907,9.30243019 L16.3210917,9.30243019 C16.2181688,7.83800759 14.9562384,6.67677264 13.4187825,6.67677264 Z M15.6131158,9.30252394 L11.2244976,9.30252394 C11.3256301,8.21553903 12.2708561,7.36077298 13.4187825,7.36077298 C14.5667573,7.3607261 15.5120317,8.21553903 15.6131158,9.30252394 Z M1.62131363,9.14080511 C1.62131363,8.87896123 1.84114375,8.66596112 2.11144334,8.66596112 L2.94585903,8.66596112 L2.88096971,9.30247707 L1.62131363,9.30247707 L1.62131363,9.14080511 Z M0.706040328,10.8224466 C0.706040328,10.3614776 1.09319876,9.98643053 1.56910217,9.98643053 L21.2665676,9.98643053 C21.742471,9.98643053 22.1295811,10.3614776 22.1295811,10.8224466 L22.1295811,11.7713845 L0.706040328,11.7713845 L0.706040328,10.8224466 Z M22.1295811,22.4800305 C22.1295811,22.9409995 21.742471,23.3160465 21.2665676,23.3160465 L1.56910217,23.3160465 C1.09319876,23.3160465 0.706040328,22.9409995 0.706040328,22.4800305 L0.706040328,21.5310925 L2.60975074,21.5310925 C2.80475742,21.5310925 2.96274671,21.3779987 2.96274671,21.1891392 C2.96274671,21.0002798 2.80470903,20.8471859 2.60975074,20.8471859 L0.706040328,20.8471859 L0.706040328,12.455338 L22.1295811,12.455338 L22.1295811,14.0575263 L18.7730467,14.0575263 C17.7154136,14.0575263 16.7993177,14.6547141 16.3645448,15.5191364 C16.2977199,15.6567146 16.2527183,15.7670115 16.2160881,15.8808241 C16.1376499,16.1249961 16.0955033,16.3834181 16.0955033,16.651262 C16.0955033,18.0814658 17.296609,19.2449976 18.7729499,19.2449976 L22.1295327,19.2449976 L22.1295327,20.8471859 L4.87018305,20.8471859 C4.67517637,20.8471859 2.58007812,21.0455155 2.58007812,21.234375 C2.58007812,21.4232345 4.67522476,21.5310925 4.87018305,21.5310925 L22.1295811,21.5310925 L22.1295811,22.4800305 Z M23.2940081,18.4762004 C23.2940081,18.5229817 23.2547164,18.5610442 23.206376,18.5610442 L18.773095,18.5610442 C18.0257307,18.5610442 17.3741277,18.1560908 17.0399066,17.5608249 C17.0247125,17.533778 17.0101959,17.5063093 16.9963083,17.4785124 C16.9685816,17.4228717 16.9435646,17.3657311 16.9214509,17.307231 C16.8439322,17.1025747 16.8016404,16.8816058 16.8016404,16.651262 C16.8016404,16.4209181 16.8439805,16.1999492 16.9214509,15.9952929 C16.943613,15.9368397 16.96863,15.8796991 16.9963083,15.8240116 C17.0101959,15.7962147 17.0247125,15.7687459 17.0399066,15.741699 C17.3741277,15.1464331 18.0257307,14.7414798 18.773095,14.7414798 L23.206376,14.7414798 C23.254668,14.7414798 23.2940081,14.7795423 23.2940081,14.8263236 L23.2940081,18.4762004 Z" id="Shape"></path>
            </g>
        </g>
    </g>
</svg>